<?xml version="1.0" encoding="UTF-8"?>
<svg width="500" height="500" viewBox="0 0 500 500" fill="none" xmlns="http://www.w3.org/2000/svg">
  <!-- Shield background -->
  <path d="M250 50 L400 150 L400 350 L250 450 L100 350 L100 150 Z" fill="#FFFFFF" stroke="#153B3C" stroke-width="8"/>
  
  <!-- Flag colors -->
  <path d="M250 150 L350 200 L350 300 L250 350 L150 300 L150 200 Z" fill="#009E49"/>
  <path d="M250 180 L320 215 L320 285 L250 320 L180 285 L180 215 Z" fill="#EF2B2D"/>
  <path d="M250 220 L270 235 L250 250 L230 235 Z" fill="#FCD116"/>
  
  <!-- Crossed spears -->
  <line x1="150" y1="100" x2="350" y2="300" stroke="#153B3C" stroke-width="8"/>
  <line x1="350" y1="100" x2="150" y2="300" stroke="#153B3C" stroke-width="8"/>
  
  <!-- Horses -->
  <path d="M120 250 Q100 200 120 150 Q140 130 160 150 Q180 170 160 200 Z" fill="#153B3C"/>
  <path d="M380 250 Q400 200 380 150 Q360 130 340 150 Q320 170 340 200 Z" fill="#153B3C"/>
  
  <!-- Book -->
  <rect x="225" y="300" width="50" height="30" fill="#153B3C"/>
  
  <!-- Motto banner -->
  <path d="M100 100 Q250 50 400 100" fill="none" stroke="#153B3C" stroke-width="4"/>
  <path d="M100 400 Q250 450 400 400" fill="none" stroke="#153B3C" stroke-width="4"/>
</svg> 